<?xml version="1.0" encoding="utf-8"?>
<!-- Generator: Adobe Illustrator 27.0.0, SVG Export Plug-In . SVG Version: 6.00 Build 0)  -->
<svg version="1.1" id="Layer_1" xmlns="http://www.w3.org/2000/svg" xmlns:xlink="http://www.w3.org/1999/xlink" x="0px" y="0px"
	 viewBox="0 0 819 593" style="enable-background:new 0 0 819 593;" xml:space="preserve">
<style type="text/css">
	.st0{opacity:0.1;clip-path:url(#SVGID_00000134969084569176788430000000616680649501331882_);}
	.st1{fill:#FFFFFF;}
</style>
<g>
	<defs>
		<rect id="SVGID_1_" y="-0.5" width="818.5" height="593"/>
	</defs>
	<clipPath id="SVGID_00000174561548491368078120000016367020432937926819_">
		<use xlink:href="#SVGID_1_"  style="overflow:visible;"/>
	</clipPath>
	<g style="opacity:0.1;clip-path:url(#SVGID_00000174561548491368078120000016367020432937926819_);">
		<g>
			<g>
				<path class="st1" d="M131.27,66.56c0,37.02-27.96,60.98-62.56,60.98c-38.69,0-67.93-28.86-67.93-63.62c0-34.76,29.32-64,67.1-64
					c15.49,0.23,33.4,6.8,43.45,16.09L93.42,40.56c-6.8-6.35-16.55-10.43-25.54-10.43c-18.13,0-34.08,14.89-34.08,33.7
					c0,17.08,13.68,33.7,36.19,33.7c14.73,0,25.24-7.1,25.69-18.74H67.8v-24.1h62.49C130.89,58.77,131.27,62.7,131.27,66.56z"/>
			</g>
			<g>
				<path class="st1" d="M146.08,80.38V2.86h32.57v77.45c0,10.12,8.69,16.85,17.91,16.85c9.14,0,18.06-6.88,18.06-16.85V2.86h32.57
					v77.53c0,27.96-22.67,47.68-50.55,47.68C168.75,128.06,146.08,108.34,146.08,80.38z"/>
			</g>
			<g>
				<path class="st1" d="M372.54,2.71v123.17h-10.28L299.63,65.2v59.54h-32.34V1.65h10.43l62.41,60.45V2.71H372.54z"/>
			</g>
			<g>
				<path class="st1" d="M558.66,2.86l-56.14,123.09h-14.66L431.94,2.86h34.99l28.11,65.96l28.18-65.96H558.66z"/>
			</g>
			<g>
				<path class="st1" d="M570.82,2.86h32.34v121.8h-32.34V2.86z"/>
			</g>
			<g>
				<path class="st1" d="M619.03,63.91c0-36.57,29.02-64.3,66.87-64.3s66.87,27.73,66.87,64.3c0,36.27-29.02,63.85-66.95,63.85
					C647.97,127.76,619.03,100.18,619.03,63.91z M720.06,63.69c0-18.81-14.81-33.32-34.15-33.32s-34.15,14.51-34.15,33.32
					c0,18.74,14.81,33.17,34.15,33.17S720.06,82.42,720.06,63.69z"/>
			</g>
			<g>
				<path class="st1" d="M847.61,94.29v30.38h-78.96V2.86h32.34v91.43H847.61z"/>
			</g>
		</g>
		<g>
			<g>
				<path class="st1" d="M68.71,274.04c-38.37,0-68.43-28.17-68.43-64.12c0-35.57,30.32-64.5,67.6-64.5
					c15.7,0.23,33.7,6.9,43.79,16.23l0.33,0.3l-18.5,25.37l-0.41-0.38c-6.8-6.35-16.46-10.29-25.2-10.29
					c-18.2,0-33.58,15.2-33.58,33.2c0,16.09,12.51,33.2,35.69,33.2c14.64,0,24.45-6.94,25.16-17.74H67.3v-25.1h63.42l0.06,0.43
					c0.66,4.49,0.99,8.39,0.99,11.94C131.77,248.18,105.25,274.04,68.71,274.04z M67.87,146.41c-36.72,0-66.59,28.49-66.59,63.5
					c0,35.4,29.62,63.12,67.43,63.12c35.96,0,62.06-25.43,62.06-60.48c0-3.38-0.3-7.1-0.91-11.36H68.3v23.1h27.9l-0.02,0.52
					c-0.45,11.68-10.73,19.22-26.19,19.22c-23.83,0-36.69-17.62-36.69-34.2c0-18.54,15.83-34.2,34.58-34.2
					c8.81,0,18.51,3.89,25.47,10.18l17.31-23.74C100.68,153.06,83.17,146.64,67.87,146.41z"/>
			</g>
			<g>
				<path class="st1" d="M196.63,274.56c-29.1,0-51.05-20.71-51.05-48.18v-78.03h33.57v77.95c0,10.23,8.85,16.35,17.41,16.35
					c8.45,0,17.56-6.25,17.56-16.35v-77.95h33.57v78.03C247.69,253.85,225.74,274.56,196.63,274.56z M146.58,149.36v77.03
					c0,26.9,21.52,47.18,50.05,47.18s50.05-20.28,50.05-47.18v-77.03h-31.57v76.95c0,10.72-9.63,17.35-18.56,17.35
					c-9.05,0-18.41-6.49-18.41-17.35v-76.95H146.58z"/>
			</g>
			<g>
				<path class="st1" d="M373.04,272.37h-10.98l-0.15-0.14l-61.79-59.85v58.86h-33.34V147.15h11.13l0.15,0.14l61.57,59.63v-58.71
					h33.42V272.37z M362.47,271.37h9.57V149.21h-31.42v60.07l-63.12-61.13h-9.73v122.09h31.34v-60.22L362.47,271.37z"/>
			</g>
			<g>
				<path class="st1" d="M502.83,272.45h-15.3l-0.13-0.29l-56.24-123.8h36.09l0.13,0.3l27.65,64.89l27.85-65.19h36.55l-0.32,0.71
					L502.83,272.45z M488.18,271.45h14.02l55.69-122.09h-34.33l-28.52,66.74l-28.44-66.74h-33.88L488.18,271.45z"/>
			</g>
			<g>
				<path class="st1" d="M603.66,271.16h-33.34v-122.8h33.34V271.16z M571.32,270.16h31.34v-120.8h-31.34V270.16z"/>
			</g>
			<g>
				<path class="st1" d="M685.83,274.26c-38.37,0-67.3-27.66-67.3-64.35c0-36.94,28.96-64.8,67.37-64.8s67.37,27.86,67.37,64.8
					c0,17.67-6.89,33.97-19.4,45.89C721.38,267.71,704.31,274.26,685.83,274.26z M685.9,146.11c-37.84,0-66.37,27.43-66.37,63.8
					c0,36.12,28.5,63.35,66.3,63.35c37.88,0,66.45-27.23,66.45-63.35C752.28,173.54,723.74,146.11,685.9,146.11z M685.9,243.36
					c-19.76,0-34.65-14.48-34.65-33.67c0-18.97,15.22-33.82,34.65-33.82c19.43,0,34.65,14.86,34.65,33.82
					C720.56,228.88,705.66,243.36,685.9,243.36z M685.9,176.86c-19.19,0-33.65,14.11-33.65,32.82c0,18.63,14.47,32.67,33.65,32.67
					c19.19,0,33.65-14.05,33.65-32.67C719.56,190.97,705.09,176.86,685.9,176.86z"/>
			</g>
			<g>
				<path class="st1" d="M848.11,271.16h-79.96v-122.8h33.34v91.43h46.62V271.16z M769.15,270.16h77.96v-29.38h-46.62v-91.43h-31.34
					V270.16z"/>
			</g>
		</g>
		<g>
			<g>
				<path class="st1" d="M131.27,364.56c0,37.02-27.96,60.98-62.56,60.98c-38.69,0-67.93-28.86-67.93-63.62
					c0-34.76,29.32-64,67.1-64c15.49,0.23,33.4,6.8,43.45,16.09l-17.91,24.56c-6.8-6.35-16.55-10.43-25.54-10.43
					c-18.13,0-34.08,14.89-34.08,33.7c0,17.08,13.68,33.7,36.19,33.7c14.73,0,25.24-7.1,25.69-18.74H67.8v-24.1h62.49
					C130.89,356.77,131.27,360.7,131.27,364.56z"/>
			</g>
			<g>
				<path class="st1" d="M146.08,378.38v-77.53h32.57v77.45c0,10.12,8.69,16.85,17.91,16.85c9.14,0,18.06-6.88,18.06-16.85v-77.45
					h32.57v77.53c0,27.96-22.67,47.68-50.55,47.68C168.75,426.06,146.08,406.34,146.08,378.38z"/>
			</g>
			<g>
				<path class="st1" d="M372.54,300.71v123.17h-10.28l-62.64-60.68v59.54h-32.34V299.65h10.43l62.41,60.45v-59.39H372.54z"/>
			</g>
			<g>
				<path class="st1" d="M558.66,300.86l-56.14,123.09h-14.66l-55.92-123.09h34.99l28.11,65.96l28.18-65.96H558.66z"/>
			</g>
			<g>
				<path class="st1" d="M570.82,300.86h32.34v121.8h-32.34V300.86z"/>
			</g>
			<g>
				<path class="st1" d="M619.03,361.91c0-36.57,29.02-64.3,66.87-64.3s66.87,27.73,66.87,64.3c0,36.27-29.02,63.85-66.95,63.85
					C647.97,425.76,619.03,398.18,619.03,361.91z M720.06,361.69c0-18.81-14.81-33.32-34.15-33.32s-34.15,14.51-34.15,33.32
					c0,18.74,14.81,33.17,34.15,33.17S720.06,380.42,720.06,361.69z"/>
			</g>
			<g>
				<path class="st1" d="M847.61,392.29v30.38h-78.96v-121.8h32.34v91.43H847.61z"/>
			</g>
		</g>
		<g>
			<g>
				<path class="st1" d="M68.71,573.04c-38.37,0-68.43-28.17-68.43-64.12c0-35.57,30.32-64.5,67.6-64.5
					c15.7,0.23,33.7,6.9,43.79,16.23l0.33,0.3l-18.5,25.37l-0.41-0.39c-6.8-6.35-16.46-10.29-25.2-10.29
					c-18.2,0-33.58,15.2-33.58,33.2c0,16.09,12.51,33.2,35.69,33.2c14.64,0,24.45-6.94,25.16-17.74H67.3v-25.1h63.42l0.06,0.43
					c0.66,4.49,0.99,8.39,0.99,11.94C131.77,547.18,105.25,573.04,68.71,573.04z M67.87,445.41c-36.72,0-66.59,28.49-66.59,63.5
					c0,35.4,29.62,63.12,67.43,63.12c35.96,0,62.06-25.43,62.06-60.48c0-3.38-0.3-7.1-0.91-11.36H68.3v23.1h27.9l-0.02,0.52
					c-0.45,11.68-10.73,19.22-26.19,19.22c-23.83,0-36.69-17.62-36.69-34.2c0-18.54,15.83-34.2,34.58-34.2
					c8.81,0,18.51,3.89,25.47,10.18l17.31-23.74C100.68,452.06,83.17,445.64,67.87,445.41z"/>
			</g>
			<g>
				<path class="st1" d="M196.63,573.56c-29.1,0-51.05-20.71-51.05-48.18v-78.03h33.57v77.95c0,10.23,8.85,16.35,17.41,16.35
					c8.45,0,17.56-6.25,17.56-16.35v-77.95h33.57v78.03C247.69,552.85,225.74,573.56,196.63,573.56z M146.58,448.36v77.03
					c0,26.9,21.52,47.18,50.05,47.18s50.05-20.28,50.05-47.18v-77.03h-31.57v76.95c0,10.72-9.63,17.35-18.56,17.35
					c-9.05,0-18.41-6.49-18.41-17.35v-76.95H146.58z"/>
			</g>
			<g>
				<path class="st1" d="M373.04,571.37h-10.98l-0.15-0.14l-61.79-59.85v58.86h-33.34V446.15h11.13l0.15,0.14l61.57,59.63v-58.71
					h33.42V571.37z M362.47,570.37h9.57V448.21h-31.42v60.07l-63.12-61.13h-9.73v122.09h31.34v-60.22L362.47,570.37z"/>
			</g>
			<g>
				<path class="st1" d="M502.83,571.45h-15.3l-0.13-0.29l-56.24-123.8h36.09l0.13,0.3l27.65,64.89l27.85-65.19h36.55L502.83,571.45
					z M488.18,570.45h14.02l55.69-122.09h-34.33l-28.52,66.74l-28.44-66.74h-33.88L488.18,570.45z"/>
			</g>
			<g>
				<path class="st1" d="M603.66,570.16h-33.34v-122.8h33.34V570.16z M571.32,569.16h31.34v-120.8h-31.34V569.16z"/>
			</g>
			<g>
				<path class="st1" d="M685.83,573.26c-38.37,0-67.3-27.66-67.3-64.35c0-36.94,28.96-64.8,67.37-64.8s67.37,27.86,67.37,64.8
					c0,17.67-6.89,33.97-19.4,45.89C721.38,566.71,704.31,573.26,685.83,573.26z M685.9,445.11c-37.84,0-66.37,27.43-66.37,63.8
					c0,36.12,28.5,63.35,66.3,63.35c37.88,0,66.45-27.23,66.45-63.35C752.28,472.54,723.74,445.11,685.9,445.11z M685.9,542.36
					c-19.76,0-34.65-14.48-34.65-33.67c0-18.97,15.22-33.82,34.65-33.82c19.43,0,34.65,14.86,34.65,33.82
					C720.56,527.88,705.66,542.36,685.9,542.36z M685.9,475.86c-19.19,0-33.65,14.11-33.65,32.82c0,18.63,14.47,32.67,33.65,32.67
					c19.19,0,33.65-14.05,33.65-32.67C719.56,489.97,705.09,475.86,685.9,475.86z"/>
			</g>
			<g>
				<path class="st1" d="M848.11,570.16h-79.96v-122.8h33.34v91.43h46.62V570.16z M769.15,569.16h77.96v-29.38h-46.62v-91.43h-31.34
					V569.16z"/>
			</g>
		</g>
	</g>
</g>
</svg>
