<?xml version="1.0" encoding="UTF-8"?>
<svg id="Layer_1" data-name="Layer 1" xmlns="http://www.w3.org/2000/svg" viewBox="0 0 500 119.88">
  <defs>
    <style>
      .cls-1, .cls-2 {
        fill: #fff;
      }

      .cls-3 {
        fill: #bc2d3e;
      }

      .cls-2 {
        font-family: LEMONMILK-Bold, 'LEMON MILK';
        font-size: 42.64px;
        font-weight: 700;
      }
    </style>
  </defs>
  <g>
    <g>
      <path class="cls-1" d="M36.57,69.9c-1.18-.8-1.6-1.68-1.57-3.09,.08-5.22-.02-10.45,.07-15.67,.03-1.59-.34-2.78-1.56-3.87-1.86-1.67-3.47-3.62-5.36-5.25-1.41-1.21-1.12-1.95,.08-3.04,1.9-1.73,3.62-3.66,5.5-5.42,.93-.87,1.34-1.77,1.33-3.07-.05-9.49-.07-18.98,.02-28.48,.02-1.77-.62-2-2.16-1.99C23.5,.09,14.08,.06,4.66,.06Q.03,.06,.03,4.78C.03,29.36,.04,53.94,0,78.52c0,1.49,.42,2.4,1.68,3.22,2.54,1.63,4.98,3.41,7.41,5.19,.85,.62,1.64,.77,2.66,.47,11.47-3.44,22.94-6.85,34.9-10.42-3.6-2.54-6.8-4.87-10.08-7.07Zm-13.19,.36c0,1.03-.26,1.56-1.35,1.85-2.91,.77-5.79,1.66-8.66,2.58-1.33,.42-1.66-.03-1.64-1.32,.05-4.41,.02-8.83,.02-13.24,0-4.34,.06-8.68-.03-13.02-.03-1.37,.37-1.77,1.73-1.71,2.72,.11,5.44,.09,8.17,0,1.3-.04,1.79,.27,1.78,1.69-.07,7.72-.05,15.45-.01,23.17Zm-1.53-36.57c-2.86-.1-5.73-.08-8.59,0-1.12,.03-1.54-.24-1.52-1.45,.06-6.32,.04-12.64,0-18.96,0-1.05,.14-1.6,1.41-1.56,2.94,.09,5.88,.08,8.82,0,1.23-.03,1.45,.48,1.44,1.56-.05,3.16-.02,6.32-.02,9.48s-.04,6.17,.02,9.26c.03,1.18-.21,1.72-1.55,1.68Z"/>
      <path class="cls-1" d="M62.72,74.94c0-6.32,.03-12.17-.02-18.02-.01-1.28,.61-2.87-.37-3.8-1.48-1.4-3.31-2.43-5.02-3.58-.19-.13-.56-.07-.81,.01-.27,.09-.49,.32-.74,.48q-4.64,2.96-4.64,8.48c0,5.3,0,10.59,0,15.86-.65,.43-1.01-.1-1.4-.36-3.02-2.09-6-4.25-9.06-6.29-.98-.66-1.32-1.38-1.31-2.53,.05-5.45,.07-10.89-.01-16.34-.02-1.29,.48-2.02,1.49-2.68,1.9-1.24,3.73-2.58,5.86-4.07-2.16-1.5-4.11-2.92-6.12-4.23-.91-.59-1.23-1.28-1.22-2.36,.03-11.26,.04-22.52-.01-33.78,0-1.39,.45-1.75,1.77-1.7,2.65,.09,5.3,.13,7.94,0,1.63-.08,2.12,.37,2.11,2.06-.09,8.61,.04,17.22-.09,25.83-.03,2.22,.55,3.61,2.5,4.81,3.47,2.14,3.31,2.15,6.7,.01,1.9-1.2,2.56-2.56,2.52-4.8-.14-8.61-.01-17.22-.1-25.83-.02-1.65,.41-2.17,2.08-2.08,2.72,.14,5.44,.08,8.17,.01,1.12-.03,1.55,.29,1.55,1.48-.03,11.41-.03,22.81,0,34.22,0,1.04-.44,1.59-1.23,2.13-2,1.34-3.95,2.75-6.1,4.26,2.11,1.47,3.94,2.82,5.85,4.04,1.04,.66,1.46,1.42,1.44,2.69-.08,5.44-.03,10.89-.04,16.34,0,.7,.24,1.49-.52,2.02-3.6,2.49-7.19,4.99-11.14,7.74Z"/>
      <path class="cls-1" d="M90.46,82.75c3.91-2.72,7.44-5.2,11-7.64,.86-.59,.59-1.44,.59-2.21,.02-5.96,.05-11.92-.02-17.89-.02-1.41,.3-1.95,1.81-1.88,2.72,.12,5.45,.09,8.17,.02,1.25-.03,1.84,.2,1.82,1.66-.07,8.17-.04,16.34-.03,24.51,0,.84-.09,1.51-.9,2.07-11.24,7.79-22.45,15.62-33.65,23.43-.83-.55-.47-1.28-.47-1.87-.02-33.56,0-67.13-.06-100.69,0-1.91,.6-2.36,2.37-2.24,2.27,.15,4.57,.16,6.84,0,1.95-.14,2.6,.37,2.58,2.48-.1,14.06-.05,28.12-.05,42.18,0,12.51,0,25.02,0,38.07Z"/>
    </g>
    <g>
      <path class="cls-3" d="M74.5,81.57c0,2.28-.03,4.56,.01,6.84,.03,1.41-.4,2.04-1.79,1.22-3.8-2.23-7.57-4.51-11.37-6.74-1.04-.61-.96-1.15-.06-1.76,3.89-2.63,7.78-5.26,11.69-7.86,1.21-.81,1.53-.14,1.52,1.01-.02,2.43,0,4.85,0,7.28Z"/>
      <polygon class="cls-3" points="57.21 119.88 14.94 91.03 50.63 80.56 74.6 97.06 74.6 107.45 57.21 119.88"/>
      <rect class="cls-3" x="102" y="0" width="11.93" height="11.93"/>
    </g>
  </g>
  <text class="cls-2" transform="translate(142.88 72.33)"><tspan x="0" y="0">Gun Violence</tspan></text>
</svg>