<svg version="1.1" id="Layer_1" xmlns="http://www.w3.org/2000/svg" xmlns:xlink="http://www.w3.org/1999/xlink" x="0px" y="0px"
	 viewBox="0 0 212.9 30" width="212.88" height="30" style="enable-background:new 0 0 212.88 30;" xml:space="preserve">
<style type="text/css">
	.st0{fill:#FFFFFF;}
	.st1{clip-path:url(#SVGID_2_);fill:#FFFFFF;}
</style>
<g>
	<polygon class="st0" points="95.5,29.7 94.8,29.7 94.8,0 95.5,0 95.5,29.7 	"/>
	<polygon class="st0" points="37.4,6.3 40.8,6.3 48.7,16.7 48.7,6.3 52.4,6.3 52.4,23.1 49.2,23.1 41,12.4 41,23.1 37.4,23.1
		37.4,6.3 	"/>
	<polygon class="st0" points="60.7,16.5 54.2,6.3 58.5,6.3 62.6,13 66.7,6.3 70.9,6.3 64.4,16.4 64.4,23.1 60.7,23.1 60.7,16.5 	"/>
	<g>
		<defs>
			<rect id="SVGID_1_" width="212.9" height="29.7"/>
		</defs>
		<clipPath id="SVGID_2_">
			<use xlink:href="#SVGID_1_"  style="overflow:visible;"/>
		</clipPath>
		<path class="st1" d="M72.5,15.9V6.3h3.7v9.5c0,2.7,1.4,4.2,3.6,4.2c2.3,0,3.6-1.4,3.6-4V6.3h3.7v9.5c0,5.1-2.9,7.6-7.4,7.6
			C75.2,23.4,72.5,20.9,72.5,15.9L72.5,15.9z"/>
		<path class="st1" d="M13.1,15.5c-3-1.8-2.7-4.4-1.5-6.3c0,0,0-0.1,0-0.2c-0.1-0.5-0.5-1.6-0.8-1.9c-0.1-0.1-0.1-0.1-0.1,0
			c0,0.5-0.6,1.8-1.5,3.3C8.3,12,8.3,15.4,13.1,15.5C13.1,15.6,13.1,15.5,13.1,15.5L13.1,15.5z M13.9,15.3c-1.8-3.9,1.8-6.4,2.4-6.9
			c0.1-0.1,0.1-0.1,0.1-0.2c0-1.2-0.7-3.2-0.9-3.5c0,0-0.1,0-0.1,0c-0.3,1.2-2,3-2.3,3.4C10.3,11.4,10.9,13.5,13.9,15.3
			C13.9,15.4,13.9,15.4,13.9,15.3L13.9,15.3z M14.5,15.2c0.9-4.1,4.2-4.2,4.5-5c0.5-1.2-0.4-3.4-0.6-3.6c0,0-0.1,0-0.1,0
			c-0.5,1-1.2,1.9-1.7,2.4C15.8,9.5,12.9,11.7,14.5,15.2C14.4,15.2,14.5,15.2,14.5,15.2L14.5,15.2z M15.1,15.5
			c5.4,0.2,5.8-4.8,5.8-6.6c0-0.1-0.1-0.1-0.1,0c-0.2,0.4-0.9,1.8-2.8,2.6C16.3,12.2,15.2,14,15.1,15.5C15,15.5,15.1,15.5,15.1,15.5
			L15.1,15.5z M16.3,17.4v-1.2H12v1.2H16.3L16.3,17.4L16.3,17.4z M13.8,26.2c0,0.2,0.5,0.3,0.6,0l1-8.2h-2.5L13.8,26.2L13.8,26.2
			L13.8,26.2z M29.7,29.7H0V0h29.7V29.7L29.7,29.7L29.7,29.7z"/>
	</g>
	<g>
		<path class="st0" d="M102.1,12l0.9-1.1c0.6,0.5,1.3,0.8,2.1,0.8c0.6,0,1-0.2,1-0.7v0c0-0.4-0.2-0.6-1.4-0.9
			c-1.4-0.4-2.3-0.7-2.3-2.1v0c0-1.3,1-2.1,2.4-2.1c1,0,1.9,0.3,2.6,0.9L106.6,8c-0.6-0.4-1.2-0.7-1.8-0.7s-0.9,0.3-0.9,0.6v0
			c0,0.5,0.3,0.6,1.5,0.9c1.4,0.4,2.2,0.9,2.2,2.1v0c0,1.4-1,2.1-2.5,2.1C104,13.1,102.9,12.7,102.1,12z"/>
		<path class="st0" d="M108.4,9.6L108.4,9.6c0-2,1.5-3.6,3.6-3.6c1.3,0,2.1,0.4,2.7,1.1l-1,1.1c-0.5-0.5-1.1-0.8-1.8-0.8
			c-1.2,0-2,1-2,2.2v0c0,1.2,0.8,2.2,2,2.2c0.8,0,1.3-0.3,1.8-0.8l1,1c-0.7,0.8-1.5,1.2-2.8,1.2C109.9,13.1,108.4,11.5,108.4,9.6z"
			/>
		<path class="st0" d="M115.7,6.1h1.5v2.7h2.8V6.1h1.5V13h-1.5v-2.8h-2.8V13h-1.5V6.1z"/>
		<path class="st0" d="M122.7,9.6L122.7,9.6c0-2,1.6-3.6,3.7-3.6s3.7,1.6,3.7,3.6v0c0,2-1.6,3.6-3.7,3.6
			C124.2,13.1,122.7,11.5,122.7,9.6z M128.5,9.6L128.5,9.6c0-1.2-0.9-2.2-2.1-2.2s-2.1,1-2.1,2.2v0c0,1.2,0.9,2.2,2.1,2.2
			S128.5,10.7,128.5,9.6z"/>
		<path class="st0" d="M130.9,9.6L130.9,9.6c0-2,1.6-3.6,3.7-3.6s3.7,1.6,3.7,3.6v0c0,2-1.6,3.6-3.7,3.6
			C132.4,13.1,130.9,11.5,130.9,9.6z M136.6,9.6L136.6,9.6c0-1.2-0.9-2.2-2.1-2.2c-1.2,0-2.1,1-2.1,2.2v0c0,1.2,0.9,2.2,2.1,2.2
			C135.8,11.7,136.6,10.7,136.6,9.6z"/>
		<path class="st0" d="M139.3,6.1h1.5v5.5h3.5V13h-5V6.1z"/>
		<path class="st0" d="M147.6,9.6L147.6,9.6c0-2,1.6-3.6,3.7-3.6c2.1,0,3.7,1.6,3.7,3.6v0c0,2-1.6,3.6-3.7,3.6
			C149.1,13.1,147.6,11.5,147.6,9.6z M153.4,9.6L153.4,9.6c0-1.2-0.9-2.2-2.1-2.2c-1.2,0-2.1,1-2.1,2.2v0c0,1.2,0.9,2.2,2.1,2.2
			C152.5,11.7,153.4,10.7,153.4,9.6z"/>
		<path class="st0" d="M156.1,6.1h5.3v1.4h-3.8v1.5h3.3v1.4h-3.3V13h-1.5V6.1z"/>
		<path class="st0" d="M164.7,9.6L164.7,9.6c0-2,1.5-3.6,3.6-3.6c1.2,0,2,0.3,2.7,1l-1,1.2c-0.5-0.4-1-0.7-1.8-0.7c-1.1,0-2,1-2,2.2
			v0c0,1.3,0.9,2.2,2.1,2.2c0.6,0,1-0.1,1.4-0.4v-1h-1.5V9h3v3c-0.7,0.6-1.7,1.1-3,1.1C166.2,13.1,164.7,11.6,164.7,9.6z"/>
		<path class="st0" d="M172.6,6.1h1.5v5.5h3.5V13h-5V6.1z"/>
	</g>
	<g>
		<path class="st0" d="M177.7,9.6L177.7,9.6c0-2,1.6-3.6,3.7-3.6s3.7,1.6,3.7,3.6v0c0,2-1.6,3.6-3.7,3.6
			C179.3,13.1,177.7,11.5,177.7,9.6z M183.5,9.6L183.5,9.6c0-1.2-0.9-2.2-2.1-2.2c-1.2,0-2.1,1-2.1,2.2v0c0,1.2,0.9,2.2,2.1,2.2
			C182.6,11.7,183.5,10.7,183.5,9.6z"/>
		<path class="st0" d="M186.2,6.1h3.2c0.8,0,1.4,0.2,1.8,0.6c0.3,0.3,0.5,0.7,0.5,1.2v0c0,0.8-0.4,1.2-0.9,1.5
			c0.8,0.3,1.3,0.8,1.3,1.7v0c0,1.3-1,1.9-2.6,1.9h-3.3V6.1z M189.1,8.9c0.7,0,1.1-0.2,1.1-0.7v0c0-0.5-0.4-0.7-1-0.7h-1.5v1.5
			H189.1z M189.5,11.7c0.7,0,1.1-0.2,1.1-0.8v0c0-0.5-0.3-0.8-1.1-0.8h-1.8v1.5H189.5z"/>
		<path class="st0" d="M195.5,6h1.4l3,7h-1.6l-0.6-1.6h-2.9l-0.6,1.6h-1.6L195.5,6z M197.1,10.1l-0.9-2.2l-0.9,2.2H197.1z"/>
		<path class="st0" d="M200.7,6.1h1.5v5.5h3.5V13h-5V6.1z"/>
	</g>
	<g>
		<path class="st0" d="M102.6,16h2.8c1.7,0,2.7,1,2.7,2.4v0c0,1.6-1.2,2.4-2.8,2.4h-1.2v2.1h-1.5V16z M105.3,19.5
			c0.8,0,1.2-0.5,1.2-1v0c0-0.7-0.5-1-1.2-1h-1.2v2.1H105.3z"/>
		<path class="st0" d="M108.8,19.9v-4h1.5v3.9c0,1.1,0.6,1.7,1.5,1.7c0.9,0,1.5-0.6,1.5-1.7v-4h1.5v3.9c0,2.1-1.2,3.1-3,3.1
			C110,23,108.8,22,108.8,19.9z"/>
		<path class="st0" d="M116.2,16h3.2c0.8,0,1.4,0.2,1.8,0.6c0.3,0.3,0.5,0.7,0.5,1.2v0c0,0.8-0.4,1.2-0.9,1.5
			c0.8,0.3,1.3,0.8,1.3,1.7v0c0,1.3-1,1.9-2.6,1.9h-3.3V16z M119.1,18.8c0.7,0,1.1-0.2,1.1-0.7v0c0-0.5-0.4-0.7-1-0.7h-1.5v1.5
			H119.1z M119.5,21.6c0.7,0,1.1-0.2,1.1-0.8v0c0-0.5-0.3-0.8-1.1-0.8h-1.8v1.5H119.5z"/>
		<path class="st0" d="M123.1,16h1.5v5.5h3.5v1.4h-5V16z"/>
		<path class="st0" d="M129,16h1.5v6.9H129V16z"/>
		<path class="st0" d="M131.7,19.5L131.7,19.5c0-2,1.5-3.6,3.6-3.6c1.3,0,2.1,0.4,2.7,1.1l-1,1.1c-0.5-0.5-1.1-0.8-1.8-0.8
			c-1.2,0-2,1-2,2.2v0c0,1.2,0.8,2.2,2,2.2c0.8,0,1.3-0.3,1.8-0.8l1,1c-0.7,0.8-1.5,1.2-2.8,1.2C133.2,23,131.7,21.4,131.7,19.5z"/>
	</g>
	<g>
		<path class="st0" d="M141.6,16h1.5v2.7h2.8V16h1.5v6.9h-1.5v-2.8h-2.8v2.8h-1.5V16z"/>
	</g>
	<g>
		<path class="st0" d="M148.8,16h5.2v1.4h-3.7v1.4h3.3v1.4h-3.3v1.5h3.8v1.4h-5.3V16z"/>
		<path class="st0" d="M157.6,15.9h1.4l3,7h-1.6l-0.6-1.6h-2.9l-0.6,1.6h-1.6L157.6,15.9z M159.2,20l-0.9-2.2l-0.9,2.2H159.2z"/>
		<path class="st0" d="M162.8,16h1.5v5.5h3.5v1.4h-5V16z"/>
	</g>
	<g>
		<path class="st0" d="M169.3,17.4h-2.1V16h5.7v1.4h-2.1v5.5h-1.5V17.4z"/>
		<path class="st0" d="M173.8,16h1.5v2.7h2.8V16h1.5v6.9h-1.5v-2.8h-2.8v2.8h-1.5V16z"/>
	</g>
</g>
</svg>
