<svg xmlns="http://www.w3.org/2000/svg" width="160" height="50.994" viewBox="0 0 160 50.994"><g transform="translate(-171 -245)"><g transform="translate(288.116 245.068)"><g transform="translate(0 0)"><path d="M877.826,22.639q-.49.253-.979.47a.091.091,0,0,0-.017.008q-.247.109-.492.209l-.028.011q-.243.1-.485.189l-.024.009c-.166.061-.331.121-.5.177h0q-.5.172-.992.311l-.017.005c-.156.044-.31.086-.464.126l-.029.008c-.151.039-.3.077-.447.111l-.029.007c-.15.035-.3.069-.445.1l-.015,0q-.454.1-.884.173l-.024,0q-.2.036-.4.067l-.037.006c-.126.02-.25.039-.372.057l-.038.005c-.122.018-.243.034-.362.05l-.025,0-.367.046-.16.018-.045,0-.152.016-.023,0-.183.018-.05,0-.163.015-.039,0-.207.017-.047,0-.18.014-.049,0-.228.017-.034,0-.207.015-.056,0-.244.016h-.011l-.242.016-.057,0-.243.015h-.016l-.26.015-.062,0-.244.014h-.02l-.271.016-.055,0-.246.013-.03,0-.282.015-.031,0-.255.013-.04,0-.275.014-.035,0-.242.012-.055,0-.267.014h-.008l-.27.014-.034,0c-1.051.054-2.005.1-2.645.137-.245.015-.539.038-.864.071l-.017,0-.114.012-.029,0-.112.012-.033,0-.111.013-.04,0-.11.013-.04.006-.113.014-.039,0-.118.016-.026,0c-.13.018-.263.037-.4.059l-.048.007-.1.016-.068.011-.094.016-.073.012-.092.016-.077.014-.089.016-.08.015-.087.017-.083.017-.085.017-.086.018-.082.017-.092.02-.075.017-.106.024-.063.015-.164.041-.04.01-.126.032-.057.016c-.036.009-.07.019-.106.029l-.063.018-.1.028-.067.02-.093.029-.065.021-.093.03-.063.021-.092.031-.061.022-.092.034-.057.021-.1.038-.049.019-.11.046-.031.013-.139.062h0l-.132.062-.036.019-.091.047-.043.023c-.027.015-.053.029-.079.045s-.03.017-.045.026l-.073.044-.043.028-.068.045-.042.029-.064.046-.039.03-.061.048-.036.029-.06.053-.029.026c-.022.021-.044.042-.064.064l-.018.018a1.623,1.623,0,0,0-.142.173c-.006.008-.011.017-.017.025s-.028.042-.042.064l-.018.033c-.011.019-.022.039-.032.06l-.016.035c-.009.02-.017.04-.025.059a.354.354,0,0,0-.014.038c-.007.02-.014.039-.019.058s-.008.027-.011.041-.009.04-.013.06,0,.027-.008.041,0,.041-.006.063,0,.027,0,.041,0,.045,0,.068,0,.025,0,.039,0,.051.006.078c0,.01,0,.021,0,.031.005.036.012.074.021.111h0c.009.038.019.076.031.114,0,.012.009.025.013.036.01.027.019.053.03.08l.02.046c.011.024.022.048.035.074s.017.033.026.05l.04.072.032.053c.015.025.031.049.046.073l.038.054.054.075.042.055c.02.025.04.052.062.077l.046.055.073.081c.016.018.032.036.05.054l.089.092.045.046c.047.046.1.094.149.14a12.549,12.549,0,0,0,1.223,1.017c.1.07.2.138.3.206.209.135.435.268.692.408.128.07.264.142.411.216l-.671,3.149-.423-.193c-.264-.119-.435-.2-.712-.331l-.319-.159c-.8-.4-1.678-.848-2.542-1.349a18.613,18.613,0,0,1-2-1.321c-.079-.06-.157-.122-.234-.184-.153-.124-.3-.251-.45-.381a7.445,7.445,0,0,1-1.891-2.451c-1.566-3.464,2.278-5.618,5.181-6.5.158-.048.314-.093.469-.137l.1-.028q.226-.062.449-.121l.076-.019c.137-.035.272-.068.409-.1l.069-.017c.147-.034.294-.067.439-.1l.092-.02q.222-.047.442-.09h0q.22-.043.436-.081l.086-.015.423-.071.065-.01.393-.059.053-.008c.141-.02.279-.038.417-.056l.077-.01q.425-.053.839-.094l.061-.006.411-.038.038,0,.407-.033h.017l.418-.03.038,0q.424-.029.841-.051c1.211-.067,2.368-.107,3.493-.2h0c.267-.021.529-.046.792-.075l.033,0c.128-.015.255-.029.381-.045l.019,0c.127-.017.255-.034.381-.053l.009,0q.185-.027.37-.059l.051-.008c.121-.021.243-.043.364-.066l.026-.005c.119-.023.236-.047.353-.073l.036-.008q.177-.039.354-.083l.061-.016q.178-.044.355-.094l.026-.007q.17-.048.34-.1l.052-.016c.115-.036.23-.074.345-.113l.067-.023c.118-.042.234-.084.352-.129l.017-.007c.113-.044.226-.089.34-.137l.063-.026c.114-.048.227-.1.341-.151l.068-.031c.118-.055.236-.112.355-.171.154-.078.3-.157.453-.235l.136-.073c.106-.057.211-.114.313-.171l.139-.078q.181-.1.357-.207l.062-.036q.2-.117.385-.235l.142-.089.244-.158.146-.1q.132-.088.259-.177l.1-.07h0l.026-.019-.7-.847c-.029-.031-.057-.059-.084-.083a14.434,14.434,0,0,0-2.158-1.208c-.537-.385-1.72-2.376-3.417-2.2-1.118.116-1.562,1.054-2.416,5.758-.012.066-.054.29-.124.648-.728.058-1.475.094-2.251.133l-.827.042c.273-1.3.443-2.114.469-2.249.69-3.581.846-4.747.041-5.231-1.47-.884-4.378.264-5.022.415a14.506,14.506,0,0,0-2.456.294,26.119,26.119,0,0,0-4.327,2.99c-.418.419-2.068,1.151-2.592,2.386s-.341,1.717-.341,1.717-1.456,1.439-2.408,2.589-.994,1.922-1.412,2.341-.308,1.277-.715,1.643a7.889,7.889,0,0,0-1.767,1.6c-.417.7-1.015,2.308-1.336,2.8s-1.282,2.534-1.153,3.006a2.533,2.533,0,0,0,.495.878,6.812,6.812,0,0,0-.98,2.652,13.43,13.43,0,0,1-1.073,4.078,2.357,2.357,0,0,0,.654,2.3c.334.288-.06,1.716.38,2.026a5.769,5.769,0,0,0,.715,3.99,29.393,29.393,0,0,0,2.978,3.824c.376.632.55,2,1.173,2.518s1.191.737,1.353,1.048.238.772.474.986,1.193.249,1.327.43c.323.436,2.72,2.212,3.955,2.178a2.221,2.221,0,0,0,1.608-.518,3.179,3.179,0,0,0,1.616-1.965c.234-1.18,1.249-5.162,1.249-5.162s.53-2.5,1.31-6.189c.269-.028.583-.053.951-.073l.168-.01c.738-.049,1.419-.1,2.056-.146l-1.455,6.95s-.584,4.136-.818,5.316a3.181,3.181,0,0,0,.745,2.433,2.221,2.221,0,0,0,1.289,1.092c1.128.5,4.022-.225,4.487-.505.193-.116,1.091.216,1.391.108s.546-.505.814-.731a7.6,7.6,0,0,1,1.651-.453c.772-.238,1.456-1.44,2.045-1.881a3.69,3.69,0,0,1,.8-.431c-.145-.054-.231-.1-.375-.154-3.974-1.484-6.941-2.806-10.758-4.616l.634-2.947c.344.188.4.256,1.741.994,1.091.6,2.536,1.426,2.753,1.538,1.688.875,5.287,2.618,8.315,3.991a6.533,6.533,0,0,0,1.1-.776,5.764,5.764,0,0,0,2.181-3.414c.526-.12.706-1.589,1.123-1.729s1.521-.926,1.483-1.88a13.43,13.43,0,0,1,.562-4.179,6.8,6.8,0,0,0,.105-2.825,2.525,2.525,0,0,0,.791-.625c.3-.386.189-2.639.081-3.217s-.047-2.295-.167-3.1a7.9,7.9,0,0,0-1.023-2.154c-.237-.493.191-1.245-.035-1.791s.03-1.276-.413-2.7-1.239-3.312-1.239-3.312.353-.375.34-1.716c0-.034,0-.068,0-.1ZM861.121,26.49c.383-.042.74-.072,1.045-.09.5-.03,1.2-.065,2-.105l.067,0c-.854,4.112-1.931,9.271-2.917,13.988l-.4.031c-.918.074-1.844.147-2.77.239C859.125,35.939,860.214,30.788,861.121,26.49Zm12.451,15a2.846,2.846,0,0,1-.581.9c-.03.033-.062.066-.095.1a6.816,6.816,0,0,1-2.781,1.473c-.1.031-.206.061-.309.089-.31.087-.622.164-.93.232l-.154.033c-.153.034-.305.063-.455.093l-.442.081c-.145.025-.286.049-.424.071-.416.068-.8.123-1.123.173l-.311.046-.075.011-.308.044-.025,0c-.1.015-.2.028-.293.041l-.063.009-.315.042-.028,0-.3.038-.051.007-.326.04-.029,0-.318.037-.031,0-.342.039-.029,0-.345.038h-.008l-.365.037-.023,0-.756.073-.017,0-.8.07h-.013c-.278.024-.563.046-.859.07-.724.057-1.5.112-2.363.169-.154.01-.5.025-.922.062h-.006c-.1.009-.211.02-.322.032l-.053.006-.082.01-.068.009-.077.01-.134.019-.058.009-.093.015-.062.011-.094.017-.054.01c-.049.01-.1.019-.144.03l-.023,0-.122.028-.045.011-.1.026-.042.012c-.045.012-.088.025-.13.039h0l-.13.044a.321.321,0,0,1-.033.012c-.031.013-.062.024-.092.038l-.033.013c-.034.015-.067.03-.1.046l-.014.007c-.037.018-.071.037-.1.057l-.021.013-.072.048-.025.019c-.023.017-.043.035-.063.052,0,.005-.011.009-.015.014a.673.673,0,0,0-.065.071s-.007.009-.01.014c-.016.021-.029.042-.041.062l-.012.023c-.01.021-.018.041-.026.062a.185.185,0,0,0-.007.021.471.471,0,0,0-.017.087s0,.008,0,.012a.575.575,0,0,0,0,.079c0,.01,0,.019,0,.03s.009.047.014.07.006.019.008.03a.824.824,0,0,0,.041.1,1.689,1.689,0,0,0,.869.973l-.646,3.024-.172-.086-.01,0-.045-.023-.173-.093-.357-.189-.183-.1-.375-.2c-.19-.1-.382-.2-.576-.308-.258-.14-.517-.286-.773-.439-.128-.076-.255-.153-.382-.233a11.786,11.786,0,0,1-1.087-.763,5.781,5.781,0,0,1-1.51-1.706c-.868-1.6.322-2.908,1.785-3.527.128-.054.259-.107.389-.158l.126-.047.269-.1.147-.051c.085-.031.171-.06.257-.089l.147-.049.274-.086c.043-.014.086-.027.129-.04.125-.038.25-.074.376-.109l.028-.009c.136-.037.274-.074.411-.109l.116-.029.3-.072.142-.033c.094-.022.187-.043.281-.062l.142-.031c.1-.021.2-.041.3-.06l.121-.025c.133-.025.265-.051.4-.074l.021,0,.436-.074.08-.013.348-.054.12-.018.318-.046.12-.015c.112-.016.225-.03.337-.045l.093-.012c.3-.037.593-.07.89-.1,1.059-.113,2.123-.2,3.175-.28h0l.83-.066.075-.007c.287-.023.573-.047.857-.073.2-.018.635-.056,1.167-.127l.253-.035c.216-.031.442-.065.674-.106.139-.024.28-.051.42-.078l.28-.06c.14-.03.279-.063.414-.1.09-.023.181-.047.269-.073,1.316-.381,2.258-.989,1.226-1.936a4.072,4.072,0,0,0-.523-.4q-.154-.1-.332-.2c-.177-.1-.372-.189-.581-.281-.77-.339-1.75-.67-2.882-1.108l.672-3.154c.961.379,1.368.525,2.259.918,2.322,1.026,7.642,2.948,7.593,6.013A2.706,2.706,0,0,1,873.572,41.492Z" transform="translate(-837.93 -11.555)" fill="#039"/></g></g><path d="M212.5,58.8l-1.177-2.63h-6.391l-1.162,2.63h-.887l4.8-10.7h.9l4.8,10.7Zm-1.5-3.395L208.132,48.9l-2.874,6.513Z" transform="translate(-4.1 202.107)" fill="#231f20"/><path d="M298.849,49.295l-4.1,6.269h-.276l-4.127-6.269V58.8h-.826V48.1h.978l4.1,6.238L298.65,48.1h1.009V58.8h-.81Z" transform="translate(-78.548 202.107)" fill="#231f20"/><path d="M382.4,53.041h6.268v.749H382.4v4.22h6.758V58.8h-7.568V48.1h7.384v.78H382.4Z" transform="translate(-157.668 202.107)" fill="#231f20"/><path d="M460.236,58.8H459.15l-3.7-4.052h-2.92V58.8H451.7V48.1h4.709a3.31,3.31,0,0,1,3.517,3.333,3.16,3.16,0,0,1-3.471,3.271Zm-7.706-4.832h3.792a2.393,2.393,0,0,0,2.706-2.553,2.467,2.467,0,0,0-2.614-2.553H452.53Z" transform="translate(-217.916 202.107)" fill="#231f20"/><path d="M525.507,58.8V48.1h.81V58.8Z" transform="translate(-281.338 202.107)" fill="#231f20"/><path d="M556.649,56.576a5.507,5.507,0,0,1-3.9,1.605,5.188,5.188,0,0,1-5.5-5.412,5.238,5.238,0,0,1,5.5-5.534,5.507,5.507,0,0,1,3.9,1.606l-.565.489a4.679,4.679,0,0,0-3.332-1.361,4.465,4.465,0,0,0-4.71,4.77,4.467,4.467,0,0,0,4.71,4.679,4.783,4.783,0,0,0,3.347-1.361Z" transform="translate(-300.019 202.852)" fill="#231f20"/><path d="M629.477,58.8l-1.178-2.63h-6.391l-1.162,2.63h-.887l4.8-10.7h.9l4.8,10.7Zm-1.5-3.395L625.1,48.9l-2.874,6.513Z" transform="translate(-362.419 202.107)" fill="#231f20"/><path d="M708.038,48.1l7.2,8.853V48.1h.81V58.8h-.321l-7.217-8.837V58.8h-.825V48.1Z" transform="translate(-437.891 202.107)" fill="#231f20"/><path d="M10.71,170.908H7.486v3.353H5.338v-11.4c1.791,0,3.581-.016,5.372-.016A4.032,4.032,0,1,1,10.71,170.908Zm-3.223-1.97H10.71a2.019,2.019,0,1,0,0-4.037H7.486Z" transform="translate(165.662 103.501)" fill="#039"/><path d="M86.389,163.328a3.265,3.265,0,0,0-2.7-1.27c-1.595,0-2.36.667-2.36,1.514,0,.993,1.171,1.27,2.539,1.432,2.377.293,4.591.913,4.591,3.631,0,2.54-2.247,3.631-4.786,3.631-2.328,0-4.119-.716-4.966-2.8l1.791-.928a3.248,3.248,0,0,0,3.208,1.807c1.351,0,2.621-.472,2.621-1.71,0-1.074-1.123-1.514-2.638-1.676-2.328-.277-4.476-.9-4.476-3.451,0-2.345,2.312-3.306,4.412-3.322,1.774,0,3.614.5,4.477,2.263Z" transform="translate(102.616 105.789)" fill="#039"/><path d="M156.841,167.67l3.028-4.705h2.588v.1l-4.542,6.594v4.7h-2.149v-4.7l-4.38-6.594v-.1h2.556Z" transform="translate(40.158 103.401)" fill="#039"/><path d="M242.3,171.536a6,6,0,0,1-4.33,1.693c-4.234,0-6.024-2.914-6.041-5.877a5.738,5.738,0,0,1,6.041-6.008,5.88,5.88,0,0,1,4.184,1.742l-1.433,1.384a3.916,3.916,0,0,0-2.751-1.074,3.737,3.737,0,0,0-3.924,3.956,3.653,3.653,0,0,0,3.924,3.858,4.194,4.194,0,0,0,2.865-1.155Z" transform="translate(-29.059 104.794)" fill="#039"/><path d="M325.56,174.475v-4.607h-5.6v4.607h-2.149v-11.4h2.149v4.8h5.6v-4.8h2.133v11.4Z" transform="translate(-102.857 103.303)" fill="#039"/><path d="M406,174.361v-11.4h2.132v11.4Z" transform="translate(-178.642 103.401)" fill="#039"/><path d="M439.911,172.212h-5.959l-.976,2.149h-2.329l5.112-11.4H438.1l5.112,11.4h-2.344Zm-2.98-6.854-2.116,4.852h4.233Z" transform="translate(-199.822 103.401)" fill="#039"/><path d="M515.971,164.918h-3.614v-1.953h9.378v1.953H518.12v9.443h-2.149Z" transform="translate(-270.038 103.401)" fill="#039"/><path d="M601.958,174.262H599.4l-3.321-3.809h-2.067v3.809h-2.149V162.849c1.807,0,3.614.016,5.422.016a3.776,3.776,0,0,1,4.1,3.778,3.38,3.38,0,0,1-2.881,3.581l3.451,3.891Zm-7.945-9.394v3.647h3.273a1.828,1.828,0,1,0,0-3.647Z" transform="translate(-338.361 103.501)" fill="#039"/><path d="M673.45,174.361v-11.4h2.133v11.4Z" transform="translate(-408.471 103.401)" fill="#039"/><path d="M714.489,171.536a6,6,0,0,1-4.331,1.693c-4.232,0-6.023-2.914-6.04-5.877a5.736,5.736,0,0,1,6.04-6.008,5.878,5.878,0,0,1,4.184,1.742l-1.432,1.384a3.918,3.918,0,0,0-2.752-1.074,3.737,3.737,0,0,0-3.923,3.956,3.653,3.653,0,0,0,3.923,3.858,4.2,4.2,0,0,0,2.866-1.155Z" transform="translate(-434.825 104.794)" fill="#039"/><path d="M104.185,293.517l-1.067-2.383H97.324l-1.052,2.383h-.8l4.351-9.7h.817l4.352,9.7Zm-1.358-3.077-2.606-5.9-2.606,5.9Z" transform="translate(88.21 -0.451)" fill="#231f20"/><path d="M176.359,284.841a3.142,3.142,0,0,0-2.938-1.317c-1.136,0-2.938.416-2.938,1.968,0,1.233,1.331,1.525,2.966,1.829,1.871.361,3.811.693,3.811,2.785-.013,2.19-2.217,2.716-3.839,2.716a4.363,4.363,0,0,1-3.978-2.107l.665-.332a3.8,3.8,0,0,0,3.312,1.759c1.192,0,3.091-.332,3.091-2.05.014-1.455-1.595-1.774-3.188-2.079-1.774-.347-3.59-.707-3.59-2.495-.041-2.051,2.092-2.689,3.686-2.689a3.73,3.73,0,0,1,3.548,1.649Z" transform="translate(24.641 0.396)" fill="#231f20"/><path d="M241.671,284.841a3.143,3.143,0,0,0-2.938-1.317c-1.137,0-2.938.416-2.938,1.968,0,1.233,1.331,1.525,2.966,1.829,1.871.361,3.812.693,3.812,2.785-.014,2.19-2.218,2.716-3.839,2.716a4.365,4.365,0,0,1-3.978-2.107l.666-.332a3.8,3.8,0,0,0,3.312,1.759c1.191,0,3.091-.332,3.091-2.05.014-1.455-1.594-1.774-3.187-2.079-1.774-.347-3.59-.707-3.59-2.495-.041-2.051,2.092-2.689,3.686-2.689a3.731,3.731,0,0,1,3.548,1.649Z" transform="translate(-31.483 0.396)" fill="#231f20"/><path d="M311.333,287.748a4.894,4.894,0,1,1-9.785-.028,4.894,4.894,0,1,1,9.785.028Zm-9.05-.013a4.167,4.167,0,1,0,8.329,0,4.167,4.167,0,1,0-8.329,0Z" transform="translate(-88.882 0.482)" fill="#231f20"/><path d="M391.539,291.5A4.994,4.994,0,0,1,388,292.952a4.962,4.962,0,1,1,0-9.923,5,5,0,0,1,3.534,1.455l-.512.443A4.251,4.251,0,0,0,388,283.694a4.283,4.283,0,0,0,0,8.566,4.334,4.334,0,0,0,3.035-1.234Z" transform="translate(-158.89 0.225)" fill="#231f20"/><path d="M459.163,293.517v-9.7h.735v9.7Z" transform="translate(-224.326 -0.451)" fill="#231f20"/><path d="M484.137,293.517l-1.068-2.383h-5.793l-1.053,2.383h-.8l4.351-9.7h.818l4.351,9.7Zm-1.359-3.077-2.605-5.9-2.607,5.9Z" transform="translate(-238.296 -0.451)" fill="#231f20"/><path d="M541.771,284.579h-3.506v-.665h7.761v.665h-3.507V293.6h-.748Z" transform="translate(-292.301 -0.535)" fill="#231f20"/><path d="M606.53,293.517v-9.7h.734v9.7Z" transform="translate(-350.964 -0.451)" fill="#231f20"/><path d="M638.772,287.748a4.894,4.894,0,1,1-9.785-.028,4.894,4.894,0,1,1,9.785.028Zm-9.05-.013a4.168,4.168,0,1,0,8.329,0,4.167,4.167,0,1,0-8.329,0Z" transform="translate(-370.262 0.482)" fill="#231f20"/><path d="M714.519,283.816l6.527,8.024v-8.024h.735v9.7h-.29l-6.543-8.011v8.011H714.2v-9.7Z" transform="translate(-443.488 -0.451)" fill="#231f20"/><g transform="translate(287.889 245)"><g transform="translate(0 0)"><path d="M876.263,22.17q-.491.253-.98.471a.1.1,0,0,0-.018.008q-.248.109-.492.208l-.028.012c-.163.067-.325.13-.485.189l-.025.009c-.166.062-.331.122-.5.178h0c-.335.115-.667.218-.993.312l-.017.005c-.157.045-.311.086-.465.126l-.029.008c-.151.039-.3.077-.448.112l-.028.007c-.15.035-.3.069-.446.1l-.015,0c-.3.066-.6.124-.885.174l-.025,0c-.134.024-.267.046-.4.067l-.037.006-.372.057-.038.005q-.184.026-.363.05l-.026,0-.367.046-.16.018-.044,0-.153.016-.022,0-.184.018-.05,0-.164.015-.039,0-.207.016-.047,0-.18.014-.049,0-.228.018-.035,0-.207.014-.056,0-.244.017h-.01l-.244.016-.056,0-.243.015h-.015l-.261.016-.061,0-.245.014h-.019l-.272.015-.054,0-.246.013-.029,0-.282.015-.03,0-.255.013-.04,0-.276.015-.035,0-.243.012-.055,0-.267.014h-.009l-.27.013-.034,0c-1.051.053-2.007.1-2.648.137-.245.015-.54.038-.865.071l-.018,0-.114.012-.028,0-.113.012-.034,0-.11.013-.04,0-.11.013-.04.006-.113.014-.039.005-.118.015-.026,0c-.13.019-.264.037-.4.059l-.049.007-.1.016-.068.01-.093.016-.074.013-.091.016-.077.014-.089.017-.08.015-.088.018-.082.016-.085.018-.086.017-.082.018-.092.02-.075.017-.107.024-.062.015-.164.04-.041.011-.126.032-.057.016-.106.029-.064.019-.1.028-.067.02-.093.029-.065.021-.094.029-.063.021-.092.031-.061.022-.093.034-.057.021-.1.038-.049.02-.111.046-.031.012c-.048.021-.095.042-.14.063h0l-.132.063-.036.019-.091.047-.043.023-.079.045a.385.385,0,0,0-.045.026l-.073.044-.043.028-.068.045-.042.029-.064.046-.039.03c-.021.016-.042.032-.062.049l-.035.029-.06.054-.03.026c-.021.021-.044.043-.064.064a.112.112,0,0,0-.018.019,1.642,1.642,0,0,0-.143.173l-.018.025c-.013.021-.028.042-.041.064l-.018.033c-.011.02-.022.039-.032.06l-.016.036c-.009.02-.017.039-.025.06s-.01.025-.014.038-.013.039-.02.058-.007.027-.01.041-.009.04-.013.06-.005.027-.008.041,0,.042-.006.063,0,.027,0,.041,0,.045,0,.068,0,.025,0,.039,0,.051.006.077a.158.158,0,0,1,0,.032c.005.037.012.074.021.112h0c.008.038.02.075.031.114,0,.012.009.024.013.036s.019.053.03.08.013.03.02.045.022.049.035.074.016.033.025.051.026.048.041.072.021.036.032.053.031.049.046.074l.038.054.054.075c.014.018.027.037.043.055s.041.052.062.078l.046.055c.023.026.049.055.074.081s.032.036.049.054.058.061.089.092l.046.046c.047.046.1.094.149.141a12.654,12.654,0,0,0,1.224,1.019c.1.071.2.138.3.206.209.136.435.268.692.408.128.07.265.142.411.216l-.672,3.153-.423-.194c-.264-.119-.435-.2-.712-.332-.092-.045-.2-.1-.32-.16-.8-.405-1.68-.849-2.544-1.351a18.452,18.452,0,0,1-2.006-1.323q-.118-.091-.234-.184c-.154-.124-.3-.251-.45-.381a7.436,7.436,0,0,1-1.894-2.454c-1.569-3.469,2.281-5.624,5.187-6.5.158-.048.314-.093.47-.136l.1-.028q.226-.063.45-.121l.075-.019.409-.1.069-.016c.148-.034.294-.067.441-.1l.092-.02c.149-.032.3-.062.442-.091h0c.147-.028.293-.055.437-.081l.086-.016c.143-.024.284-.049.424-.071l.064-.01.394-.059.052-.008.418-.056.077-.009c.284-.036.564-.067.841-.095l.061-.006.412-.039.038,0,.407-.033h.017l.419-.031.038,0c.283-.019.565-.036.842-.052,1.213-.066,2.37-.106,3.5-.2h0c.267-.021.529-.046.792-.076l.033,0,.382-.045.019,0c.128-.017.254-.034.381-.052l.01,0c.123-.018.246-.038.37-.059l.051-.009c.121-.021.244-.043.365-.066l.026-.005c.119-.023.236-.047.354-.073l.035-.008c.118-.027.237-.054.355-.083l.061-.016c.119-.03.237-.061.355-.094l.026-.007c.114-.032.227-.066.341-.1l.052-.015c.115-.036.23-.075.346-.114l.067-.023c.117-.042.234-.084.353-.129l.017-.007c.112-.044.227-.089.341-.137l.063-.027c.114-.049.227-.1.342-.151l.067-.031c.119-.055.237-.112.356-.171.154-.079.305-.157.454-.236l.136-.073c.106-.057.21-.114.312-.171l.14-.078c.121-.069.241-.137.358-.207l.061-.035c.132-.078.259-.157.386-.236.048-.03.094-.06.142-.09.082-.053.164-.1.244-.157l.147-.1q.133-.088.259-.177l.1-.071h0l.026-.019-.7-.848c-.029-.031-.058-.06-.084-.084a14.447,14.447,0,0,0-2.162-1.209c-.537-.386-1.722-2.378-3.422-2.2-1.119.116-1.563,1.056-2.418,5.765-.012.066-.053.29-.124.648-.729.058-1.477.095-2.253.133l-.827.042c.273-1.3.443-2.116.468-2.252.692-3.585.848-4.753.041-5.237-1.471-.885-4.383.265-5.027.417a14.49,14.49,0,0,0-2.459.295,26.17,26.17,0,0,0-4.333,2.993c-.418.419-2.071,1.153-2.594,2.389s-.341,1.718-.341,1.718-1.457,1.441-2.411,2.592-1,1.924-1.413,2.343-.309,1.279-.716,1.645a7.927,7.927,0,0,0-1.769,1.6c-.417.7-1.016,2.311-1.337,2.805s-1.284,2.537-1.154,3.009a2.546,2.546,0,0,0,.5.88,6.825,6.825,0,0,0-.981,2.654,13.437,13.437,0,0,1-1.074,4.083,2.358,2.358,0,0,0,.654,2.307c.334.289-.061,1.718.38,2.028a5.776,5.776,0,0,0,.716,3.994,29.448,29.448,0,0,0,2.982,3.828c.376.633.55,2.007,1.175,2.522s1.193.738,1.355,1.049.238.773.475.987,1.194.249,1.329.43c.324.436,2.723,2.215,3.96,2.18a2.221,2.221,0,0,0,1.609-.518,3.183,3.183,0,0,0,1.618-1.968c.234-1.181,1.251-5.168,1.251-5.168l1.311-6.2c.27-.029.584-.054.952-.074l.169-.01c.739-.049,1.421-.1,2.059-.146l-1.457,6.958s-.585,4.141-.819,5.322a3.186,3.186,0,0,0,.745,2.436,2.232,2.232,0,0,0,1.291,1.093c1.13.5,4.027-.226,4.492-.506.193-.116,1.092.216,1.392.108s.547-.506.815-.732a7.631,7.631,0,0,1,1.653-.454c.773-.238,1.457-1.441,2.047-1.883a3.726,3.726,0,0,1,.8-.431c-.145-.054-.231-.1-.376-.154-3.979-1.485-6.95-2.809-10.771-4.621l.635-2.95c.346.188.4.256,1.744,1,1.092.6,2.539,1.427,2.756,1.54,1.69.876,5.294,2.621,8.325,4a6.506,6.506,0,0,0,1.1-.776,5.761,5.761,0,0,0,2.183-3.419c.526-.12.708-1.591,1.126-1.732s1.522-.926,1.485-1.882a13.445,13.445,0,0,1,.562-4.184,6.8,6.8,0,0,0,.106-2.829,2.53,2.53,0,0,0,.792-.625c.3-.386.19-2.642.081-3.221s-.047-2.3-.168-3.1a7.892,7.892,0,0,0-1.023-2.156c-.238-.494.191-1.246-.036-1.794s.031-1.278-.413-2.705-1.241-3.316-1.241-3.316.353-.376.34-1.719c0-.035,0-.068,0-.1Zm-16.726,3.855c.384-.042.741-.072,1.046-.091.506-.029,1.2-.065,2.006-.1l.067,0c-.855,4.117-1.933,9.282-2.92,14l-.4.031c-.919.074-1.846.147-2.773.239C857.539,35.486,858.628,30.329,859.537,26.026ZM872,41.046a2.888,2.888,0,0,1-.582.9c-.031.033-.063.067-.1.1a6.825,6.825,0,0,1-2.784,1.475c-.1.031-.206.061-.309.09-.31.087-.622.164-.931.232l-.154.033c-.153.034-.3.063-.455.093l-.444.081-.424.071c-.416.068-.8.123-1.125.173l-.311.047-.075.01-.309.045-.026,0-.293.041-.063.009-.316.042-.028,0-.3.039-.051.006-.326.04-.029,0-.318.038-.031,0-.343.039-.028,0-.346.038H861.5l-.365.038-.023,0-.757.074-.017,0-.8.07h-.013c-.278.024-.564.046-.86.07-.726.057-1.507.113-2.366.17-.154.01-.5.025-.923.062h-.005c-.1.009-.212.02-.323.032l-.053.006-.081.01-.069.008-.077.01-.134.019-.058.009-.093.015-.062.011c-.031,0-.063.01-.094.016l-.054.01-.144.03-.023.005-.122.028-.046.011-.1.026-.042.012c-.045.012-.088.025-.13.039h0l-.13.045c-.011,0-.021.009-.032.012-.031.012-.062.024-.093.038l-.033.014-.1.045-.014.007c-.037.019-.071.038-.1.057l-.021.013c-.025.016-.05.032-.072.048l-.026.019-.063.052c0,.005-.01.009-.015.014a.744.744,0,0,0-.065.071s-.006.01-.01.014a.655.655,0,0,0-.04.062c-.005.008-.009.016-.013.023s-.018.041-.026.062a.1.1,0,0,0-.007.021.44.44,0,0,0-.018.087s0,.008,0,.011a.587.587,0,0,0,0,.08c0,.01,0,.019,0,.03s.009.046.014.07l.009.03a.8.8,0,0,0,.041.1,1.7,1.7,0,0,0,.87.974l-.647,3.028-.172-.086-.01,0-.044-.023-.173-.093-.359-.189-.183-.1-.376-.2c-.19-.1-.383-.2-.577-.309-.258-.14-.517-.287-.774-.439q-.192-.114-.383-.233a11.979,11.979,0,0,1-1.088-.764,5.814,5.814,0,0,1-1.512-1.708c-.868-1.6.324-2.911,1.788-3.531.128-.055.259-.107.39-.159l.125-.048.269-.1.148-.051c.084-.03.171-.06.257-.089l.148-.049.274-.087c.043-.014.086-.028.129-.039.125-.039.252-.075.377-.11l.028-.009q.205-.056.412-.109l.116-.029c.1-.025.2-.049.3-.072l.143-.033.28-.062.143-.032c.1-.02.2-.041.3-.06l.121-.025c.133-.026.266-.051.4-.074l.021,0,.435-.074.081-.012.348-.055.12-.018.318-.045.119-.015.338-.045.094-.012c.3-.037.593-.07.891-.1,1.059-.113,2.125-.2,3.178-.28h0l.831-.065.075-.007c.287-.023.574-.047.858-.073.2-.018.636-.056,1.169-.127l.253-.034c.217-.031.443-.066.675-.106.139-.024.28-.051.42-.078l.281-.06q.211-.046.415-.1c.09-.022.18-.047.269-.073,1.317-.381,2.26-.99,1.228-1.938a4.167,4.167,0,0,0-.524-.4c-.1-.067-.213-.133-.332-.2-.177-.1-.372-.19-.582-.281-.77-.34-1.751-.671-2.885-1.109l.672-3.158c.962.379,1.37.526,2.262.92,2.326,1.027,7.652,2.952,7.6,6.02A2.705,2.705,0,0,1,872,41.046Z" transform="translate(-836.318 -11.072)" fill="#039"/></g></g><g transform="translate(326.436 291.949)"><path d="M1110.352,346.547v-.01a1.688,1.688,0,1,1,3.376-.01v.01a1.688,1.688,0,1,1-3.376.01Zm3.182-.01v-.01a1.494,1.494,0,1,0-2.988.01v.01a1.494,1.494,0,1,0,2.988-.01Zm-2.153-.892h.776c.378,0,.66.184.66.543a.517.517,0,0,1-.4.524l.456.65h-.4l-.407-.592h-.359v.592h-.33Zm.747.854c.223,0,.349-.116.349-.281,0-.184-.126-.281-.349-.281h-.417v.563Z" transform="translate(-1110.352 -344.84)" fill="#039"/></g></g></svg>