<svg id="Layer_1" data-name="Layer 1" xmlns="http://www.w3.org/2000/svg" width="338" height="100" viewBox="0 0 338 100"><defs><style>.cls-1{fill:#137fc2;}</style></defs><title>DHS Logo</title><polygon class="cls-1" points="171.02 46.92 174.25 43.72 174.25 34.03 164.55 24.34 132.25 24.34 122.57 34.03 122.57 27.58 119.33 24.34 106.41 24.34 103.18 27.58 103.18 34.03 96.72 40.5 90.26 34.03 90.26 27.58 87.03 24.34 74.11 24.34 70.88 27.58 67.65 24.34 54.73 24.34 51.5 27.58 51.5 40.5 35.35 24.34 22.43 24.34 19.2 27.58 19.2 72.79 22.43 76.03 35.35 76.03 38.58 72.79 38.58 59.87 54.73 76.03 67.65 76.03 70.88 72.79 70.88 46.95 87.03 63.1 87.03 72.79 90.26 76.03 103.18 76.03 106.41 72.79 106.41 63.1 122.57 46.95 122.57 66.33 132.25 76.03 164.55 76.03 174.25 66.33 174.25 56.65 171.02 53.41 154.87 53.41 154.87 56.65 141.94 56.65 141.94 43.72 154.87 43.72 154.87 46.92 171.02 46.92 171.02 46.92"/><path class="cls-1" d="M172.38,25.67h.21c.25,0,.45-.08.45-.28s-.13-.3-.41-.3a.73.73,0,0,0-.25,0v.55Zm0,1.09h-.45V24.82a5.77,5.77,0,0,1,.74-.06,1,1,0,0,1,.66.16.47.47,0,0,1,.2.41.5.5,0,0,1-.4.46v0c.19.06.29.21.34.47a1.63,1.63,0,0,0,.15.48h-.48a1.68,1.68,0,0,1-.15-.48c0-.2-.15-.29-.4-.29h-.21v.77Zm-1.19-1a1.51,1.51,0,0,0,1.51,1.55,1.55,1.55,0,1,0-1.51-1.55Zm3.48,0a2,2,0,1,1-2-1.93,2,2,0,0,1,2,1.93Z"/><path class="cls-1" d="M186.93,24.14h4.42c3.15,0,5,1.92,5,5.1,0,3.36-1.92,5.18-5,5.18h-4.42Zm2.68,8h1.27c2,0,2.83-.83,2.83-2.89a2.5,2.5,0,0,0-2.83-2.78h-1.27Z"/><path class="cls-1" d="M199.56,31.28a1.59,1.59,0,0,0,1.66,1.7,1.48,1.48,0,0,0,1.4-.82h2.29a3.54,3.54,0,0,1-3.71,2.47,3.76,3.76,0,0,1-4.09-4,3.92,3.92,0,0,1,4-3.93c2.67,0,4,2,3.9,4.55Zm3-1.37a1.51,1.51,0,0,0-1.45-1.52,1.61,1.61,0,0,0-1.58,1.52Z"/><path class="cls-1" d="M206,27h2.33v.86h0a2.38,2.38,0,0,1,2-1.08c2.35,0,3.34,2,3.34,4.12,0,1.94-1,3.78-3.15,3.78a2.49,2.49,0,0,1-2.13-1h0v3.31H206Zm2.36,3.65c0,1.31.37,2.16,1.48,2.16s1.47-1.13,1.47-2.16-.38-2-1.46-2C209.19,28.6,208.36,29.06,208.36,30.6Z"/><path class="cls-1" d="M214.67,29.25a2.29,2.29,0,0,1,1.16-2,5,5,0,0,1,2.38-.52c1.77,0,3.48.39,3.48,2.51V32.5a4.33,4.33,0,0,0,.29,1.92h-2.46a2.81,2.81,0,0,1-.15-.71,3.36,3.36,0,0,1-2.46.92c-1.42,0-2.54-.72-2.54-2.26,0-2.43,2.64-2.24,4.34-2.59.42-.08.65-.23.65-.69s-.68-.77-1.18-.77a1.08,1.08,0,0,0-1.22.93Zm3.16,3.87c1.17,0,1.56-.66,1.5-2.2a6.44,6.44,0,0,1-1.51.4c-.55.13-1,.36-1,1S217.29,33.12,217.83,33.12Z"/><path class="cls-1" d="M223.11,27h2.38v1.31h0a2.24,2.24,0,0,1,2.24-1.45,2.84,2.84,0,0,1,.58.05v2.23a3.75,3.75,0,0,0-.94-.14,1.71,1.71,0,0,0-1.84,1.77v3.7h-2.45Z"/><path class="cls-1" d="M233.75,28.53h-1.51v3.4c0,.59.35.72.88.72l.63,0v1.8c-.44,0-.89.07-1.34.07-2.08,0-2.62-.61-2.62-2.63V28.53h-1.23V27h1.23V24.69h2.45V27h1.51Z"/><path class="cls-1" d="M234.72,27h2.37v1h0a2.5,2.5,0,0,1,2.15-1.24,2.17,2.17,0,0,1,2.17,1.21,2.74,2.74,0,0,1,2.33-1.21c2.37,0,2.63,1.8,2.63,3.23v4.46H244V30c0-.81-.39-1.28-1-1.28-1.05,0-1.16.8-1.16,2v3.66h-2.44V30.17c0-.88-.26-1.42-.92-1.42-.88,0-1.25.5-1.25,2v3.64h-2.45Z"/><path class="cls-1" d="M249.85,31.28a1.59,1.59,0,0,0,1.67,1.7,1.46,1.46,0,0,0,1.39-.82h2.29a3.54,3.54,0,0,1-3.71,2.47,3.76,3.76,0,0,1-4.09-4,3.92,3.92,0,0,1,4-3.93c2.68,0,4,2,3.9,4.55Zm3-1.37a1.51,1.51,0,0,0-1.45-1.52,1.61,1.61,0,0,0-1.58,1.52Z"/><path class="cls-1" d="M256.29,27h2.37v1h0A2.83,2.83,0,0,1,261,26.73c2.49,0,2.7,1.82,2.7,2.9v4.79h-2.45V30.81c0-1,.11-2.06-1.22-2.06-.92,0-1.33.77-1.33,1.59v4.08h-2.44Z"/><path class="cls-1" d="M269.51,28.53H268v3.4c0,.59.34.72.87.72.2,0,.42,0,.64,0v1.8c-.45,0-.9.07-1.34.07-2.09,0-2.62-.61-2.62-2.63V28.53h-1.24V27h1.24V24.69H268V27h1.51Z"/><path class="cls-1" d="M278.13,26.73a4,4,0,1,1-3.93,4A3.83,3.83,0,0,1,278.13,26.73Zm0,6c1.13,0,1.49-1.12,1.49-2.07s-.36-2.09-1.49-2.09-1.48,1.14-1.48,2.09S277,32.76,278.13,32.76Z"/><path class="cls-1" d="M283.48,28.53H282.3V27h1.18c0-2.14.75-2.81,2.83-2.81.39,0,.79,0,1.18.05v1.72a5,5,0,0,0-.66,0c-.56,0-.91.07-.91.75V27h1.47v1.58h-1.47v5.89h-2.44Z"/><path class="cls-1" d="M186.9,39.29h2.68V43h3.53V39.29h2.67V49.57h-2.67V45.34h-3.53v4.23H186.9Z"/><path class="cls-1" d="M200.85,41.88a4,4,0,1,1-3.93,4A3.84,3.84,0,0,1,200.85,41.88Zm0,6c1.13,0,1.49-1.12,1.49-2.07s-.36-2.09-1.49-2.09-1.49,1.14-1.49,2.09S199.71,47.91,200.85,47.91Z"/><path class="cls-1" d="M205.8,42.1h2.37v1h0a2.5,2.5,0,0,1,2.14-1.24,2.18,2.18,0,0,1,2.18,1.21,2.74,2.74,0,0,1,2.33-1.21c2.37,0,2.63,1.8,2.63,3.23v4.46H215V45.18c0-.81-.39-1.28-1-1.28-1,0-1.15.8-1.15,2v3.66h-2.44V45.32c0-.88-.26-1.42-.92-1.42-.88,0-1.26.5-1.26,2v3.64H205.8Z"/><path class="cls-1" d="M220.92,46.43a1.6,1.6,0,0,0,1.67,1.7,1.48,1.48,0,0,0,1.4-.82h2.29a3.54,3.54,0,0,1-3.72,2.47,3.75,3.75,0,0,1-4.08-4,3.92,3.92,0,0,1,4-3.93c2.67,0,4,2,3.9,4.55Zm3-1.37a1.51,1.51,0,0,0-1.45-1.52,1.62,1.62,0,0,0-1.59,1.52Z"/><path class="cls-1" d="M227.43,39.29h2.45V49.57h-2.45Z"/><path class="cls-1" d="M233.37,46.43a1.59,1.59,0,0,0,1.67,1.7,1.46,1.46,0,0,0,1.39-.82h2.29A3.52,3.52,0,0,1,235,49.78a3.75,3.75,0,0,1-4.09-4,3.92,3.92,0,0,1,4-3.93c2.68,0,4,2,3.9,4.55Zm3-1.37A1.52,1.52,0,0,0,235,43.54a1.61,1.61,0,0,0-1.58,1.52Z"/><path class="cls-1" d="M241.73,47.11a1,1,0,0,0,.4.83,1.55,1.55,0,0,0,.91.26c.47,0,1.15-.2,1.15-.79s-.77-.69-1.2-.79c-1.54-.39-3.47-.43-3.47-2.45,0-1.8,1.95-2.29,3.41-2.29,1.64,0,3.36.48,3.44,2.42h-2.26a.7.7,0,0,0-.31-.65,1.45,1.45,0,0,0-.78-.18c-.4,0-1.05,0-1.05.56,0,.7,1.64.83,2.76,1.08a2.11,2.11,0,0,1,1.9,2c0,2-1.9,2.66-3.58,2.66s-3.58-.59-3.65-2.67Z"/><path class="cls-1" d="M249.54,47.11a1,1,0,0,0,.4.83,1.54,1.54,0,0,0,.9.26c.48,0,1.16-.2,1.16-.79s-.77-.69-1.2-.79c-1.54-.39-3.47-.43-3.47-2.45,0-1.8,1.95-2.29,3.41-2.29,1.64,0,3.36.48,3.44,2.42h-2.26a.7.7,0,0,0-.31-.65,1.45,1.45,0,0,0-.78-.18c-.4,0-1.05,0-1.05.56,0,.7,1.64.83,2.76,1.08a2.11,2.11,0,0,1,1.9,2c0,2-1.9,2.66-3.58,2.66s-3.58-.59-3.66-2.67Z"/><path class="cls-1" d="M261.78,46.11c.06,1.21.81,1.6,2,1.6.8,0,1.64-.29,1.64-1.05s-1.47-1.08-2.95-1.5-3-1.07-3-3c0-2.24,2.26-3.12,4.19-3.12s4.1,1,4.11,3.31H265c0-.94-.84-1.24-1.66-1.24-.57,0-1.29.2-1.29.88s1.48.93,3,1.35,3,1.11,3,3c0,2.61-2.21,3.44-4.47,3.44s-4.45-1-4.46-3.67Z"/><path class="cls-1" d="M271.1,46.43a1.6,1.6,0,0,0,1.67,1.7,1.48,1.48,0,0,0,1.4-.82h2.28a3.52,3.52,0,0,1-3.71,2.47,3.75,3.75,0,0,1-4.08-4,3.91,3.91,0,0,1,4-3.93c2.68,0,4,2,3.9,4.55Zm3-1.37a1.51,1.51,0,0,0-1.46-1.52,1.62,1.62,0,0,0-1.58,1.52Z"/><path class="cls-1" d="M277.59,42.1H280v1.31h0A2.24,2.24,0,0,1,282.23,42a2.84,2.84,0,0,1,.58,0v2.23a3.75,3.75,0,0,0-.94-.14A1.71,1.71,0,0,0,280,45.87v3.7h-2.44Z"/><path class="cls-1" d="M288.26,49.57h-2.82L283,42.1h2.55L286.86,47h0l1.39-4.94h2.48Z"/><path class="cls-1" d="M293.8,41.16h-2.45V39.29h2.45Zm-2.45.94h2.45v7.47h-2.45Z"/><path class="cls-1" d="M300.07,44.83a1.16,1.16,0,0,0-1.2-1.08c-1.36,0-1.58,1.17-1.58,2.21s.42,1.95,1.45,1.95a1.32,1.32,0,0,0,1.4-1.28h2.37a3.49,3.49,0,0,1-3.75,3.15A3.72,3.72,0,0,1,294.84,46a3.79,3.79,0,0,1,3.92-4.08c1.85,0,3.51,1,3.68,2.95Z"/><path class="cls-1" d="M305.54,46.43a1.59,1.59,0,0,0,1.67,1.7,1.46,1.46,0,0,0,1.39-.82h2.29a3.53,3.53,0,0,1-3.71,2.47,3.75,3.75,0,0,1-4.09-4,3.92,3.92,0,0,1,4-3.93c2.68,0,4,2,3.9,4.55Zm3-1.37a1.51,1.51,0,0,0-1.45-1.52,1.61,1.61,0,0,0-1.58,1.52Z"/><path class="cls-1" d="M313.89,47.11a1,1,0,0,0,.41.83,1.54,1.54,0,0,0,.9.26c.48,0,1.15-.2,1.15-.79s-.76-.69-1.19-.79c-1.54-.39-3.47-.43-3.47-2.45,0-1.8,1.94-2.29,3.41-2.29,1.64,0,3.36.48,3.44,2.42h-2.26a.7.7,0,0,0-.31-.65,1.48,1.48,0,0,0-.78-.18c-.4,0-1.05,0-1.05.56,0,.7,1.64.83,2.76,1.08a2.11,2.11,0,0,1,1.9,2c0,2-1.9,2.66-3.58,2.66s-3.59-.59-3.66-2.67Z"/><path class="cls-1" d="M186.57,54.07h3.67c2.72,0,3.9,2,3.9,4.43s-1.18,4.42-3.9,4.42h-3.67Zm1.55,7.59h1.52c2.43,0,3-1.39,3-3.16s-.52-3.16-3-3.16h-1.52Z"/><path class="cls-1" d="M196.21,60.08a1.71,1.71,0,0,0,1.72,1.9,1.49,1.49,0,0,0,1.57-1.07h1.33a2.81,2.81,0,0,1-2.9,2.19,3,3,0,0,1-3.13-3.37,3.1,3.1,0,1,1,6.12.35Zm3.3-.93a1.65,1.65,0,1,0-3.3,0Z"/><path class="cls-1" d="M201.79,56.52h1.34v.86h0a2.15,2.15,0,0,1,2-1c2,0,3,1.54,3,3.41s-.86,3.35-2.76,3.35a2.47,2.47,0,0,1-2.14-1h0v3.2h-1.41Zm3.16.94c-1.19,0-1.8.9-1.8,2.27S203.81,62,205,62c1.29,0,1.77-1.14,1.77-2.25S206.11,57.46,205,57.46Z"/><path class="cls-1" d="M214.42,61.5c0,.34.07.48.33.48a2.44,2.44,0,0,0,.35,0v1a3.34,3.34,0,0,1-.89.17c-.57,0-1-.2-1.09-.79a3.29,3.29,0,0,1-2.22.79,2,2,0,0,1-2.19-1.88c0-1.59,1.27-1.85,2.46-2,1-.19,1.92-.08,1.92-.91s-.75-.86-1.32-.86c-.8,0-1.35.32-1.42,1h-1.41c.1-1.64,1.5-2.13,2.91-2.13,1.25,0,2.57.51,2.57,1.86ZM213,59.71a5.19,5.19,0,0,1-1.74.39c-.61.1-1.15.32-1.15,1.06s.8.82,1.3.82,1.59-.32,1.59-1.21Z"/><path class="cls-1" d="M215.77,56.52h1.32v1.24h0A2.06,2.06,0,0,1,219,56.34a3.47,3.47,0,0,1,.53,0v1.36c-.2,0-.41-.06-.61-.06-1,0-1.73.78-1.73,2.19v3.05h-1.41Z"/><path class="cls-1" d="M219.69,56.52h1.06V54.6h1.42v1.92h1.27v1h-1.27V61c0,.58.05.88.68.88a2.35,2.35,0,0,0,.59,0v1.09c-.31,0-.6.07-.91.07-1.48,0-1.75-.57-1.78-1.63V57.57h-1.06Z"/><path class="cls-1" d="M224.19,56.52h1.34v.89h0a2.15,2.15,0,0,1,2-1.07,1.83,1.83,0,0,1,1.8,1.07,2.31,2.31,0,0,1,2-1.07,1.88,1.88,0,0,1,2.14,2.16v4.42h-1.41V59.18c0-1-.06-1.72-1.17-1.72-1,0-1.36.63-1.36,1.71v3.75h-1.41V58.81c0-.88-.27-1.35-1.13-1.35a1.48,1.48,0,0,0-1.4,1.66v3.8h-1.41Z"/><path class="cls-1" d="M235.81,60.08a1.7,1.7,0,0,0,1.72,1.9,1.48,1.48,0,0,0,1.56-1.07h1.34a2.81,2.81,0,0,1-2.9,2.19c-2,0-3.13-1.41-3.13-3.37a3.1,3.1,0,1,1,6.12.35Zm3.3-.93a1.65,1.65,0,1,0-3.3,0Z"/><path class="cls-1" d="M241.37,56.52h1.34v.94l0,0a2.31,2.31,0,0,1,2-1.14A2,2,0,0,1,247,58.52v4.4h-1.41v-4c0-1-.42-1.44-1.25-1.44a1.56,1.56,0,0,0-1.55,1.68v3.78h-1.41Z"/><path class="cls-1" d="M247.56,56.52h1.06V54.6H250v1.92h1.27v1H250V61c0,.58,0,.88.68.88a2.35,2.35,0,0,0,.59,0v1.09c-.31,0-.61.07-.92.07-1.47,0-1.74-.57-1.77-1.63V57.57h-1.06Z"/><path class="cls-1" d="M255,59.71a3.24,3.24,0,1,1,3.24,3.39A3.1,3.1,0,0,1,255,59.71Zm5.06,0c0-1.1-.56-2.25-1.82-2.25s-1.82,1.15-1.82,2.25S257,62,258.22,62,260,60.83,260,59.71Z"/><path class="cls-1" d="M261.67,56.52h1.05V56c0-1.63.86-1.91,1.77-1.91a4,4,0,0,1,1,.09v1.1a2.8,2.8,0,0,0-.65-.07c-.39,0-.7.14-.7.67v.66h1.21v1h-1.21v5.35h-1.41V57.57h-1.05Z"/><path class="cls-1" d="M187.58,73c0,1.36,1,1.9,2.25,1.9s1.87-.67,1.87-1.34a1.05,1.05,0,0,0-.73-1.09c-.62-.24-1.43-.4-2.64-.73a2.25,2.25,0,0,1-2-2.24c0-1.78,1.64-2.61,3.23-2.61,1.85,0,3.4,1,3.4,2.83h-1.55c-.07-1.14-.84-1.56-1.91-1.56-.72,0-1.62.26-1.62,1.15,0,.62.42,1,1.05,1.14.14,0,2.1.54,2.55.68a2.35,2.35,0,0,1,1.73,2.26c0,2-1.76,2.77-3.52,2.77-2,0-3.66-1-3.69-3.16Z"/><path class="cls-1" d="M193.88,72.76a3.23,3.23,0,1,1,3.23,3.38A3.09,3.09,0,0,1,193.88,72.76Zm5.05,0c0-1.1-.56-2.25-1.82-2.25s-1.82,1.15-1.82,2.25.56,2.27,1.82,2.27S198.93,73.88,198.93,72.76Z"/><path class="cls-1" d="M205.6,71.71a1.35,1.35,0,0,0-1.46-1.2c-.73,0-1.76.38-1.76,2.33,0,1.06.47,2.19,1.7,2.19a1.53,1.53,0,0,0,1.52-1.46H207a2.75,2.75,0,0,1-2.93,2.57,3,3,0,0,1-3.11-3.3c0-1.94,1.05-3.45,3.16-3.45A2.58,2.58,0,0,1,207,71.71Z"/><path class="cls-1" d="M207.94,67.12h1.41v1.34h-1.41Zm0,2.44h1.41V76h-1.41Z"/><path class="cls-1" d="M216,74.55c0,.34.07.48.33.48a1.64,1.64,0,0,0,.35,0v1a3.33,3.33,0,0,1-.89.16c-.57,0-1-.19-1.09-.78a3.26,3.26,0,0,1-2.22.78,2,2,0,0,1-2.19-1.87c0-1.6,1.27-1.86,2.46-2,1-.19,1.92-.08,1.92-.91s-.75-.86-1.32-.86c-.8,0-1.35.32-1.42,1h-1.41c.1-1.65,1.5-2.13,2.91-2.13,1.25,0,2.57.51,2.57,1.86Zm-1.41-1.79a5.19,5.19,0,0,1-1.74.39c-.61.09-1.15.32-1.15,1.06s.8.82,1.3.82,1.59-.32,1.59-1.22Z"/><path class="cls-1" d="M217.37,67.12h1.42V76h-1.42Z"/><path class="cls-1" d="M224.49,73c0,1.36,1,1.9,2.24,1.9s1.87-.67,1.87-1.34a1.05,1.05,0,0,0-.73-1.09c-.62-.24-1.42-.4-2.64-.73a2.25,2.25,0,0,1-2-2.24c0-1.78,1.64-2.61,3.24-2.61,1.84,0,3.39,1,3.39,2.83h-1.55c-.07-1.14-.84-1.56-1.9-1.56-.72,0-1.63.26-1.63,1.15,0,.62.42,1,1.06,1.14.13,0,2.09.54,2.55.68a2.35,2.35,0,0,1,1.72,2.26c0,2-1.76,2.77-3.52,2.77-2,0-3.65-1-3.69-3.16Z"/><path class="cls-1" d="M232.19,73.13a1.7,1.7,0,0,0,1.72,1.9A1.48,1.48,0,0,0,235.47,74h1.34a2.81,2.81,0,0,1-2.9,2.18,3,3,0,0,1-3.14-3.37,3.1,3.1,0,1,1,6.12.36Zm3.29-.93a1.65,1.65,0,1,0-3.29,0Z"/><path class="cls-1" d="M237.74,69.56h1.33V70.8h0A2.09,2.09,0,0,1,241,69.39a3.61,3.61,0,0,1,.53,0v1.36c-.2,0-.41-.06-.61-.06-1,0-1.73.78-1.73,2.19v3h-1.42Z"/><path class="cls-1" d="M241.67,69.56h1.54l1.62,4.92h0l1.56-4.92h1.46L245.59,76H244Z"/><path class="cls-1" d="M248.52,67.12h1.41v1.34h-1.41Zm0,2.44h1.41V76h-1.41Z"/><path class="cls-1" d="M255.51,71.71a1.35,1.35,0,0,0-1.46-1.2c-.73,0-1.76.38-1.76,2.33,0,1.06.47,2.19,1.7,2.19a1.52,1.52,0,0,0,1.52-1.46h1.41A2.74,2.74,0,0,1,254,76.14a3,3,0,0,1-3.11-3.3c0-1.94,1.05-3.45,3.16-3.45a2.58,2.58,0,0,1,2.88,2.32Z"/><path class="cls-1" d="M258.94,73.13a1.7,1.7,0,0,0,1.72,1.9A1.48,1.48,0,0,0,262.22,74h1.34a2.81,2.81,0,0,1-2.9,2.18,3,3,0,0,1-3.14-3.37,3.1,3.1,0,1,1,6.12.36Zm3.29-.93a1.65,1.65,0,1,0-3.29,0Z"/><path class="cls-1" d="M265.57,73.91c.08.82.7,1.12,1.45,1.12.53,0,1.46-.11,1.43-.84s-1.07-.83-2.1-1.07-2.05-.59-2.05-1.89,1.51-1.84,2.67-1.84,2.5.55,2.68,2h-1.48c-.12-.67-.68-.85-1.3-.85-.41,0-1.16.1-1.16.65,0,.7,1,.8,2.08,1s2.07.61,2.07,1.87c0,1.53-1.54,2.08-2.86,2.08-1.61,0-2.82-.71-2.84-2.23Z"/></svg>